<svg width="196" height="28" fill="none" xmlns="http://www.w3.org/2000/svg">
  <path d="M9.958 27.567c-1.102.027-1.888.047-2.36.06-.472.012-.813.019-1.023.019-.157 0-.236-.059-.236-.177s.078-.176.236-.176h.708c.787 0 1.285-.17 1.495-.511.21-.34.367-.981.472-1.922.026-.42.052-.923.078-1.513.027-.59.054-1.318.08-2.184V.729H7.794c-2.02 0-3.651.727-4.897 2.181C1.65 4.365.897 6.428.635 9.1L.4 11.338a.218.218 0 01-.236.196c-.133 0-.184-.067-.157-.196l.236-2.24c.079-.76.138-1.585.177-2.476.04-.89.085-2.082.137-3.575.027-1.048.046-1.71.06-1.986C.628.786.661.635.713.61.845.531 1.376.466 2.308.413 3.239.361 4.307.335 5.51.335h.69c.302 0 .872.013 1.712.04 1.205.026 2.084.04 2.635.04h2.063c.249 0 .61-.014 1.082-.04.84 0 1.593-.007 2.261-.02.669-.013 1.423-.02 2.263-.018 1.206 0 2.28.026 3.225.078.944.052 1.481.118 1.612.2.053.026.085.183.099.471.013.288.032.97.059 2.044 0 1.44.02 2.586.059 3.438.039.852.085 1.657.138 2.417l.157 2.24c.026.133-.02.196-.138.196a.209.209 0 01-.217-.197l-.235-2.24c-.263-2.672-.997-4.716-2.202-6.132C19.568 1.436 17.956.715 15.936.69h-1.612v18.865c0 .602.013 1.152.039 1.65 0 .839.013 1.553.04 2.142.026.59.065 1.093.117 1.512.08.944.23 1.586.453 1.926.223.34.728.51 1.515.51h.706c.158 0 .236.06.236.178 0 .117-.078.176-.236.176-.235 0-.583-.007-1.042-.02-.46-.013-1.253-.033-2.38-.059a51.015 51.015 0 00-1.377-.039h-.963c-.249-.003-.74.009-1.474.036zm61.225-14.44a.208.208 0 00-.255.177l-.315 3.34a11.498 11.498 0 01-.924 3.36 16.339 16.339 0 01-1.908 3.322 12.407 12.407 0 01-2.97 2.867c-1.035.68-2.051 1.02-3.048 1.02-.21 0-.5-.006-.868-.02-.368-.012-.984-.032-1.849-.058-.813 0-1.383-.006-1.71-.02a19.55 19.55 0 00-.807-.02c.113-.721.186-1.45.216-2.18.065-1.06.098-2.26.098-3.595V6.742c.026-.97.052-1.762.08-2.378.026-.616.065-1.12.117-1.513.104-.811.294-1.361.57-1.65.277-.288.926-.432 1.948-.432h1.1c.158 0 .237-.06.237-.177 0-.118-.078-.177-.234-.177h-1.22c-.578 0-1.587.014-3.028.04-.892.026-1.495.04-1.81.04h-1.376c-.393 0-1.101-.014-2.124-.04a48.629 48.629 0 00-1.335-.04h-.396c-.157 0-.236.06-.236.177 0 .118.079.177.236.177.997 0 1.633.17 1.908.511.276.34.453 1.009.534 2.004.059.515.092 1.033.099 1.552.013.615.02 1.486.02 2.613v10.138c0 3.012-.027 4.977-.08 5.893-.133 1.65-.33 2.705-.59 3.164-.26.459-.928.688-2.005.687a6.172 6.172 0 01-1.16-.152c-1.276-.318-2.689-3.527-2.996-4.239-1.01-2.333-1.935-4.425-2.932-6.98C40.972 12.892 36.008.786 35.867.5a.267.267 0 00-.125-.125.62.62 0 00-.318-.067c-.368-.01-1.039.006-1.367.006a.35.35 0 00-.311.125c-.126.186-3.87 9.413-4.4 10.843-.49 1.32-1.103 2.823-.2 4.234.454.712 1.221 1.333 1.935 1.525a6.212 6.212 0 002.002.143c.58-.029 1.153-.185 1.734-.226.652-.046 1.053.326 1.142.973.09.646-.21 1.022-.834 1.146a5.893 5.893 0 01-3.477-.34c-.68-.273-1.348-.6-2.053-.786a2.613 2.613 0 00-2.983 1.472c-.158.354-1.596 2.895-2.969 5.327-.59 1.044-1.311 1.995-2.06 2.306a1.707 1.707 0 01-.697.186c-.288 0-.476-.005-.467.157a.233.233 0 00.236.217h.919c.091 0 1.235-.06 2.745-.062 1.593 0 3.577.08 4.867.062.113 0 .55.009.749 0a.3.3 0 00.25-.25c0-.124-.164-.187-.25-.187-.25 0-1.15.134-1.622.104-1.03-.066-1.735-.456-2.122-1.225-1-1.995-.066-4.473.687-6.11.374-.809 1.086-1.234 1.697-1.259 1.236-.05 2.11.325 2.971 1.2 1.382 1.405 3.032 2.016 4.984 1.2 1.067-.446 2.034-1.733 1.856-3.133-.14-1.099-1.206-2.542-3.613-2.466-1.054.033-2.092.373-3.146.434-1.184.066-2.19-1.145-2.002-2.348.287-1.863 3.08-8.666 3.309-9.086 1.698 3.981 6.913 16.237 7.554 17.816.406 1 .89 1.979 1.153 3.025.467 1.849-1.877 1.974-2.781 1.974-.284 0-.874-.062-.874.124 0 .25.488.19.624.188 2.457-.057 4.96-.076 6.802-.063 2.227.017 3.493.073 3.499.074.006 0 .243.018.345.018l7.04-.117c1.757.026 3.298.052 4.623.078 1.324.026 2.446.04 3.363.04 1.653 0 2.95-.014 3.895-.04.944-.026 1.468-.065 1.573-.117.104-.157.275-1.173.511-3.046.237-1.873.5-4.447.787-7.721l.314-3.379c.024-.132-.035-.204-.179-.217zm4.818 4.343V6.899c-.026-.865-.053-1.592-.079-2.181a78.353 78.353 0 00-.078-1.513c-.106-.943-.263-1.585-.473-1.925-.21-.34-.707-.51-1.494-.511h-.905c-.158 0-.238-.058-.238-.174 0-.115.079-.174.236-.176.236 0 .557.006.964.02l1.987.058c.578.026.971.04 1.18.04h1c.301 0 .898-.013 1.79-.04a763.24 763.24 0 002.891-.059c.565-.013.952-.02 1.163-.023.157 0 .235.06.235.177 0 .118-.078.177-.235.177h-.905c-.787 0-1.285.17-1.495.511-.21.34-.367.983-.47 1.925-.026.42-.053.923-.078 1.513-.026.589-.052 1.316-.08 2.18v14.266c.027.864.053 1.591.08 2.18.026.59.052 1.095.078 1.515.104.943.262 1.585.472 1.926.21.34.709.51 1.495.51h.903c.157 0 .235.06.235.178 0 .117-.078.176-.235.176-.21 0-.597-.007-1.16-.02-.564-.013-1.528-.033-2.892-.059a81.451 81.451 0 00-1.79-.039h-1c-.211 0-.604.013-1.18.04l-1.987.058c-.406.013-.727.02-.964.02-.157 0-.236-.06-.236-.176 0-.118.079-.178.236-.178h.905c.787 0 1.285-.17 1.494-.51.21-.34.367-.983.473-1.925.026-.42.052-.924.079-1.514.026-.59.052-1.317.078-2.18V17.47zM194.87.415c-.235 0-.491.006-.766.02-.276.013-.662.032-1.161.058-.315.027-.531.04-.649.04h-.826c-.276 0-.82-.013-1.632-.04-1.286-.025-2.19-.044-2.714-.058-.524-.014-.905-.02-1.141-.02-.157 0-.236.06-.236.177 0 .117.079.177.236.177h.551c1.94 0 3.297.818 4.07 2.455.774 1.638 1.161 4.25 1.16 7.837v10.612L177.759 2.928a27.118 27.118 0 01-1.691-2.513.764.764 0 00-.157-.177.397.397 0 00-.237-.059h-.138c-.065 0-.216.014-.452.04a154.511 154.511 0 01-7.749.196c-.133 0-.2.06-.2.177 0 .118.067.177.2.177h.354a3.504 3.504 0 011.475.314c.515.25.987.581 1.395.982.281.27.519.582.707.923.149.271.23.575.236.884v12.142c-.026 3.93-.243 6.792-.649 8.586-.407 1.794-1.069 2.691-1.987 2.692a6.918 6.918 0 01-1.363-.113c-1.275-.318-2.688-3.527-2.995-4.239-1.009-2.337-1.935-4.425-2.932-6.982C160.375 12.892 155.414.787 155.273.5a.266.266 0 00-.124-.124.61.61 0 00-.319-.067c-.368-.01-1.039.005-1.366.005a.352.352 0 00-.313.125c-.124.187-3.87 9.413-4.399 10.843-.491 1.32-1.103 2.824-.2 4.234.455.712 1.221 1.333 1.935 1.525a6.198 6.198 0 002.002.143c.58-.028 1.153-.185 1.735-.225.65-.046 1.052.326 1.141.972.088.647-.21 1.022-.834 1.147a5.892 5.892 0 01-3.476-.342c-.682-.271-1.349-.6-2.054-.785a2.613 2.613 0 00-2.984 1.473c-.157.354-1.596 2.894-2.968 5.326-.59 1.044-1.311 1.992-2.06 2.306-.395.167-.644.229-1.342.238h-.393c-.735 0-1.213-.15-1.436-.452-.222-.301-.386-.87-.491-1.709a78.65 78.65 0 01-.079-1.396c-.027-.538-.054-1.186-.082-1.943V9.884c0-1.387.007-2.461.02-3.221.013-.76.019-1.402.019-1.925.052-1.624.19-2.69.413-3.2.223-.51.755-.765 1.594-.767h.432c.157 0 .235-.059.236-.176 0-.118-.078-.177-.236-.177a50.26 50.26 0 01-1.928-.04c-.681-.025-1.585-.065-2.714-.117-.444-.026-.753-.04-.924-.04h-.413c-.261 0-.516.082-.728.236a2.51 2.51 0 00-.649.747l-.098.191c-.039.08-.112.21-.216.394-.289.55-.512.975-.668 1.277a14.07 14.07 0 01-.472.844l-6.726 11.512-7.121-12.1a137.68 137.68 0 00-.946-1.727c-.263-.47-.459-.85-.59-1.14a.675.675 0 00-.176-.275.469.469 0 00-.295-.079h-.098c-.099.008-.198.021-.295.04-.997.105-2.04.177-3.128.216-1.088.039-2.288.059-3.599.06-.133 0-.2.052-.2.156 0 .104.067.157.2.157h.118c.441-.006.879.088 1.278.276.403.199.759.48 1.047.823.229.25.39.554.467.884.111.43.164.873.157 1.317v4.6a586.24 586.24 0 00-.039 5.599v3.241c0 1.156-.02 2.197-.059 3.124a36.309 36.309 0 01-.177 2.456c-.184 1.52-.453 2.607-.806 3.261-.354.655-.951.983-1.79.983h-.156c-.158 0-.236.059-.236.177 0 .117.079.176.236.176.209 0 .452-.006.728-.02l1.201-.058c.34-.026.583-.04.728-.04h.708c.17 0 .518.013 1.042.04 1.285.052 2.216.078 2.793.078h1.259c.133 0 .196-.058.2-.176.004-.118-.067-.177-.2-.177h-.551c-1.601 0-2.742-.806-3.422-2.416-.68-1.611-1.008-4.08-.983-7.408l.039-14.382 9.676 16.465c.158.236.256.38.295.433a.17.17 0 00.138.078h.158c.078 0 .163-.059.255-.177.208-.31.398-.631.571-.962l8.731-14.817c.288-.471.479-.772.571-.904.092-.13.165-.196.219-.196a.156.156 0 01.096.023c.028.018.05.044.062.075.033.122.046.248.039.374v16.113c0 .603-.013 1.154-.039 1.65 0 .866-.013 1.606-.04 2.221a18.969 18.969 0 01-.118 1.549c-.133.864-.323 1.46-.57 1.788-.247.327-.804.49-1.672.49h-.707c-.158 0-.236.06-.236.178 0 .117.078.176.236.176.209 0 .524-.006.944-.02l2.006-.058c.603-.026 1.016-.039 1.239-.04h.962c.263 0 .787.014 1.574.04 1.258.026 2.15.046 2.675.059.525.013.905.02 1.14.02.134 0 1.342-.032 1.342-.032.092 0 1.235-.06 2.746-.062 1.592 0 3.577.082 4.867.063.113 0 .55.008.749 0a.3.3 0 00.25-.25c0-.124-.164-.186-.25-.186-.249 0-1.15.133-1.622.103-1.03-.067-1.735-.456-2.121-1.225-1.001-1.995-.067-4.473.686-6.109.374-.81 1.087-1.235 1.697-1.26 1.236-.05 2.109.325 2.971 1.2 1.381 1.405 3.032 2.016 4.984 1.2 1.068-.446 2.034-1.733 1.856-3.132-.139-1.1-1.205-2.543-3.613-2.467-1.054.035-2.093.373-3.146.434-1.184.067-2.19-1.144-2.002-2.348.287-1.862 3.08-8.665 3.308-9.085 1.699 3.98 6.916 16.24 7.557 17.816.406 1 .89 1.979 1.152 3.025.467 1.849-1.876 1.974-2.781 1.974-.284 0-.874-.063-.874.124 0 .25.488.19.625.187a240.65 240.65 0 016.802-.062c2.227.017 3.492.073 3.498.074.006 0 .816.012 1.118 0l1.318-.059c.394-.026.669-.039.827-.04h.943c.288 0 .852.014 1.692.04 1.102.026 1.869.046 2.301.059.433.013.728.02.885.02.133 0 .2-.06.2-.177 0-.118-.067-.177-.2-.177h-.554c-1.705 0-2.937-.911-3.697-2.733-.76-1.822-1.14-4.67-1.141-8.546V3.6l16.282 22.2c.578.787 1.031 1.31 1.357 1.573.329.262.74.4 1.161.392.311.003.621-.03.924-.098a.942.942 0 00.534-.255V11.066c0-1.231.013-2.325.039-3.282.027-.957.066-1.788.118-2.494.104-1.677.308-2.849.61-3.517.302-.669.872-1.002 1.711-1h.118c.134 0 .197-.06.197-.177 0-.117-.069-.18-.201-.18zm-89.95 22.07a4.071 4.071 0 00-2.112-1.532c-2.223-.791-4.533-1.39-6.797-2.095-1.356-.423-2.726-.835-4.018-1.383-.782-.333-1.449-.754-1.275-1.556.173-.802.946-1.142 1.759-1.252.987-.112 1.979-.174 2.972-.184 2.174-.069 4.34-.269 6.49-.6a5.477 5.477 0 002.087-.807c1.398-.858 1.397-2.023.534-3.36-.561-.872-1.479-1.317-2.386-1.645-2.041-.738-4.186-1.25-6.272-1.902-1.415-.44-2.83-.895-4.179-1.466-.817-.347-1.392-.933-1.105-1.903.239-.81.96-1.621 2.52-2.12 1.56-.497 6.049-.68 8.675 1.688 1.569 1.415 1.735 2.47 1.791 4.837 0 .168.046.251.14.252.093 0 .139-.084.139-.252 0-.746.006-1.053.015-1.92s.041-2.004.097-4.036a.267.267 0 00-.056-.196.424.424 0 00-.224-.083l-.148-.04a2.839 2.839 0 00-.244-.076 45.772 45.772 0 00-.557-.125 17.322 17.322 0 00-1.39-.273c-4.563-.8-7.916-.433-10.111.224-.804.249-1.578.584-2.309 1-1.152.614-2.369 1.504-2.494 2.715-.127 1.232.541 2.173 1.719 2.722 1.177.548 2.463.933 3.72 1.348 2.516.83 5.064 1.591 7.559 2.47.765.267 1.593.4 1.485 1.262-.1.805-.839 1.2-1.601 1.432-.779.239-3.4.393-4.452.467-2.069.141-4.115.113-6.051.812-1.139.412-2.131.988-2.203 2.218-.076 1.26.601 2.18 1.84 2.745.864.38 1.75.707 2.655.978 2.596.808 5.23 1.533 7.798 2.4 1.047.353 2.088 1 1.873 2.19-.226 1.25-1.987 1.858-3.173 2.05-.888.145-5.681 1.129-8.62-1.985-1.238-1.311-1.736-2.47-1.792-4.837 0-.168-.047-.252-.14-.252-.093 0-.14.084-.14.252 0 .745-.005 1.053-.014 1.92-.01.866-.042 2.004-.098 4.035-.008.07.012.14.056.196a.422.422 0 00.224.083c1.044.302 2.114.51 3.195.624h.014c2.478.482 9.496 1.155 13.431-1.182 1.501-1.045 2.063-2.664 1.17-3.857h.003z" fill="#fff"/>
</svg>
